<svg width="25" height="24" viewBox="0 0 25 24" fill="none" xmlns="http://www.w3.org/2000/svg">
<path d="M4.29688 10.9375C4.29688 14.4453 7.14844 17.2969 10.6562 17.2969C11.9609 17.2969 13.1562 16.8984 14.1562 16.2188L17.75 19.8125C17.9688 20.0391 18.2734 20.1406 18.5781 20.1406C19.2422 20.1406 19.7188 19.6406 19.7188 18.9922C19.7188 18.6797 19.6094 18.3906 19.3984 18.1719L15.8281 14.5938C16.5703 13.5703 17.0156 12.3047 17.0156 10.9375C17.0156 7.42969 14.1641 4.57812 10.6562 4.57812C7.14844 4.57812 4.29688 7.42969 4.29688 10.9375ZM5.95312 10.9375C5.95312 8.34375 8.05469 6.23438 10.6562 6.23438C13.25 6.23438 15.3594 8.34375 15.3594 10.9375C15.3594 13.5312 13.25 15.6406 10.6562 15.6406C8.05469 15.6406 5.95312 13.5312 5.95312 10.9375Z" fill="#C4C4C4"/>
</svg>
